/* XPM */
static const char * const offled_xpm[] = {
/* columns rows colors chars-per-pixel */
"18 18 119 2 ",
"   c None",
".  c black",
"X  c #000001",
"o  c #030000",
"O  c #000004",
"+  c #030007",
"@  c #070007",
"#  c #090002",
"$  c #0A0002",
"%  c #090007",
"&  c #0A0007",
"*  c #0F0007",
"=  c #000800",
"-  c #000A03",
";  c #05000B",
":  c #080008",
">  c #0A0008",
",  c #0B0008",
"<  c #0A000E",
"1  c #130005",
"2  c #100007",
"3  c #1E0004",
"4  c #1F0004",
"5  c #1D0D02",
"6  c #110008",
"7  c #120008",
"8  c #160008",
"9  c #1B0009",
"0  c #1F0008",
"q  c #290003",
"w  c #290803",
"e  c #200008",
"r  c #240008",
"t  c #250008",
"y  c #250009",
"u  c #26010C",
"i  c #370000",
"p  c #360003",
"a  c #370006",
"s  c #390005",
"d  c #3A0007",
"f  c #3C0005",
"g  c #3C0007",
"h  c #3C0009",
"j  c #3E0009",
"k  c #2B0B1C",
"l  c #320B1E",
"z  c #3B1514",
"x  c #3B2C09",
"c  c #450002",
"v  c #4C0100",
"b  c #4A0008",
"n  c #4F0F08",
"m  c #540000",
"M  c #520307",
"N  c #560004",
"B  c #5B0002",
"V  c #5D0000",
"C  c #590005",
"Z  c #5B0006",
"A  c #400B16",
"S  c #610002",
"D  c #660600",
"F  c #620006",
"G  c #650006",
"H  c #6A0003",
"J  c #6F0003",
"K  c #6A0009",
"L  c #6C0009",
"P  c #720000",
"I  c #720003",
"U  c #740001",
"Y  c #770000",
"T  c #720007",
"R  c #7B0001",
"E  c #7A0101",
"W  c #7C0E04",
"Q  c #700009",
"!  c #70000E",
"~  c #71000E",
"^  c #7A000B",
"/  c #670C13",
"(  c #6A0C13",
")  c #600F18",
"_  c #6C0C19",
"`  c #432C03",
"'  c #562C09",
"]  c #5A2C09",
"[  c #502019",
"{  c #542019",
"}  c #4E1924",
"|  c #521823",
" . c #532021",
".. c #542021",
"X. c #5D620A",
"o. c #5D2243",
"O. c #820204",
"+. c #890000",
"@. c #8B0100",
"#. c #8D0000",
"$. c #8F0000",
"%. c #8D0200",
"&. c #8D0004",
"*. c #8D0608",
"=. c #910000",
"-. c #900100",
";. c #910200",
":. c #900403",
">. c #91000B",
",. c #8B0019",
"<. c #8E0019",
"1. c #88161F",
"2. c #93141B",
"3. c #91193B",
"4. c #901941",
"5. c #8F2D5E",
"6. c #8F3664",
"7. c #8F3B6D",
"8. c #903066",
/* pixels */
"                                    ",
"                                    ",
"                                    ",
"          [ ( Q Q ~ L ( {           ",
"        X.` P ;.&.<.^ S ' X.        ",
"      ..] W @.;.#.:.O.H n x  .      ",
"      _ R #.3.5.8.2.P N b r A       ",
"      T >.;.4.8.7.1.V f j 0 o       ",
"      ~ ,.*.%.#.@.D M j 3 6 ,       ",
"      K T E Y J F v f r 6 + ,       ",
"      G C C B m c a r 2 # ; -       ",
"      ) p f f p q 3 2 % % , 5       ",
"      } l u 3 8 ; o O ; < * w       ",
"        o.k o # % % % % * 9         ",
"          | z = * % - 5 w           ",
"                                    ",
"                                    ",
"                                    "
};
