/* XPM */
static const char * const redled_xpm[] = {
/* columns rows colors chars-per-pixel */
"18 18 129 2 ",
"   c None",
".  c #58000F",
"X  c #530011",
"o  c #550011",
"O  c #570015",
"+  c #590017",
"@  c #5B0017",
"#  c #60000D",
"$  c #73000C",
"%  c #79000B",
"&  c #610016",
"*  c #680016",
"=  c #6E0017",
"-  c #6F0018",
";  c #700016",
":  c #730017",
">  c #760019",
",  c #75001E",
"<  c #76001E",
"1  c #78001B",
"2  c #79001F",
"3  c #710021",
"4  c #7B0022",
"5  c #7C0022",
"6  c #6C1227",
"7  c #91000F",
"8  c #A5001D",
"9  c #870024",
"0  c #8E0023",
"q  c #8D0027",
"w  c #900026",
"e  c #910027",
"r  c #940126",
"t  c #9C0020",
"y  c #9D0025",
"u  c #9F0028",
"i  c #A10026",
"p  c #A30127",
"a  c #A50029",
"s  c #A60029",
"d  c #A8002C",
"f  c #B60026",
"g  c #B6002C",
"h  c #B8002B",
"j  c #B9002C",
"k  c #BD002D",
"l  c #BE012E",
"z  c #BA0030",
"x  c #BA0131",
"c  c #C60030",
"v  c #C90032",
"b  c #CC0133",
"n  c #D50032",
"m  c #D00136",
"M  c #D90037",
"N  c #D30039",
"B  c #D20339",
"V  c #D6003B",
"C  c #D9003C",
"Z  c #DE003E",
"A  c #EE0037",
"S  c #E0013B",
"D  c #E2003A",
"F  c #E90038",
"G  c #F0003E",
"H  c #FF003B",
"J  c #FD003D",
"K  c #972C44",
"L  c #9B3049",
"P  c #B02C46",
"I  c #BA2C44",
"U  c #A23550",
"Y  c #E60540",
"T  c #EB0042",
"R  c #EE0645",
"E  c #EE0447",
"W  c #F10042",
"Q  c #F00043",
"!  c #F30145",
"~  c #F40047",
"^  c #FE0043",
"/  c #FF0044",
"(  c #F4074B",
")  c #F4054C",
"_  c #F6074C",
"`  c #F6064D",
"'  c #F6074D",
"]  c #FA004A",
"[  c #FC0048",
"{  c #FD004A",
"}  c #FD014B",
"|  c #FF004B",
" . c #FD0050",
".. c #FF0050",
"X. c #FF0052",
"o. c #FF0452",
"O. c #D72C4B",
"+. c #DE2C4A",
"@. c #E52C50",
"#. c #F02D5F",
"$. c #FF0061",
"%. c #FD1C65",
"&. c #FE1A68",
"*. c #F72D62",
"=. c #F72D63",
"-. c #F82D61",
";. c #FA2F64",
":. c #FF2C66",
">. c #A5465D",
",. c #BC5871",
"<. c #CB5871",
"1. c #DD627A",
"2. c #FF5391",
"3. c #DD6283",
"4. c #CD728A",
"5. c #CF748D",
"6. c #D37283",
"7. c #D77284",
"8. c #D5728A",
"9. c #D3748D",
"0. c #EF6586",
"q. c #FA6583",
"w. c #FA6584",
"e. c #FA6588",
"r. c #FF5FA0",
"t. c #FF7FC4",
"y. c #FF86CA",
"u. c #FF8FD2",
"i. c #FF8CD5",
/* pixels */
"                                    ",
"                                    ",
"                                    ",
"          7.w.=.) ' -.w.7.          ",
"        1.@.~ ..} | / A O.1.        ",
"      8.+.) ^ | $.o.! D b I 9.      ",
"      e.Q J 2.t.y.:.G Z v i <.      ",
"      *...H r.i.i.;.F N l i 7       ",
"      ' | } %.&.] Y B j i e 1       ",
"      ( Q T R R Z b h s e > :       ",
"      #.C V M n c h s q 3 & 5       ",
"      0.f l l g d y 0 , O X U       ",
"      4.P p t r 9 4 : # o 6 >.      ",
"        3.K $ , * + + o 6 L         ",
"          5.,.% = = 5 U >.          ",
"                                    ",
"                                    ",
"                                    "
};
